# xmcd
# 
# Track frame offsets:
#     150
#     16725
#     33300
#     55275
#     74550
#     90600
#     112875
#     131985
#     156960
#     170685
#     191085
#     206385
#     235800
# 
# Disc length: 3429
# 
# Revision: 0
# Processed by: cddbd v1.5.2PL0 Copyright (c) Steve Scherf et al.
# Submitted via: fre:ac v1.0.27
# 
DISCID=b20d630d
DTITLE=LUAR NA LUBRE - EXTRA - MUNDI
DYEAR=2015
DGENRE=Folk
TTITLE0=A BATALLA
TTITLE1=TXOERIA TXORI
TTITLE2=XOTA DE XOXÉ/BRETEMAS E RAIOLAS/CARBALLESA DO IBIO
TTITLE3=LA MOLINERA
TTITLE4=THE SAILORS HORNPIPE/PASACORREDOIRAS
TTITLE5=FOLIADA DA CORUÑA/RUADA DE REBORDELO
TTITLE6=ARDORA
TTITLE7=FISTERRA
TTITLE8=RAMÓN DA CHICULATEIRA
TTITLE9=EL ROSSINYOL
TTITLE10=CANTIGA DE FALVÁN
TTITLE11=ONDE VAS POR AGUA/NEL CAMPU ÑACEN FLORES
TTITLE12=LA MUIXERANGA
EXTD=
EXTT0=
EXTT1=
EXTT2=
EXTT3=
EXTT4=
EXTT5=
EXTT6=
EXTT7=
EXTT8=
EXTT9=
EXTT10=
EXTT11=
EXTT12=
PLAYORDER=
